<svg width="392" height="112" viewBox="0 0 392 112" fill="none" xmlns="http://www.w3.org/2000/svg">
<g clip-path="url(#clip0_147_4)">
<path d="M26.8349 110.784H35.7751C35.7811 110.784 35.786 110.78 35.786 110.774V108.679C35.786 108.673 35.7811 108.668 35.7751 108.668H28.9407V106.595H33.6811C33.6871 106.595 33.692 106.59 33.692 106.584V104.489C33.692 104.483 33.6871 104.478 33.6811 104.478H28.9407V102.405H35.7751C35.7811 102.405 35.786 102.4 35.786 102.394V100.3C35.786 100.294 35.7811 100.289 35.7751 100.289H26.8349C26.8289 100.289 26.824 100.294 26.824 100.3V110.773C26.824 110.78 26.8289 110.784 26.8349 110.784Z" fill="#FFB500"/>
<path d="M49.9724 100.295C49.9705 100.291 49.9669 100.289 49.9629 100.289H47.5017C47.4979 100.289 47.4943 100.291 47.4924 100.294L45.4938 103.526L43.4956 100.294C43.4936 100.291 43.4901 100.289 43.4863 100.289H41.0241C41.0201 100.289 41.0165 100.291 41.0145 100.295C41.0127 100.298 41.0127 100.302 41.0148 100.306L44.2501 105.537L41.0148 110.768C41.0128 110.771 41.0127 110.776 41.0145 110.779C41.0165 110.783 41.0201 110.785 41.0241 110.785H43.4863C43.4901 110.785 43.4936 110.783 43.4956 110.779L45.4938 107.548L47.4924 110.779C47.4943 110.783 47.4979 110.785 47.5017 110.785H49.9629C49.9669 110.785 49.9705 110.782 49.9724 110.779C49.9743 110.776 49.9743 110.771 49.9722 110.768L46.7374 105.537L49.9722 100.306C49.9743 100.302 49.9744 100.298 49.9724 100.295Z" fill="#FFB500"/>
<path d="M64.1644 104.39C64.1644 102.129 62.3248 100.289 60.0637 100.289H55.2136C55.2075 100.289 55.2026 100.294 55.2026 100.3V110.774C55.2026 110.78 55.2075 110.785 55.2136 110.785H57.3078C57.3138 110.785 57.3188 110.78 57.3188 110.774V108.49H60.0637C60.133 108.49 60.2025 108.489 60.2705 108.485C61.004 108.449 61.7134 108.216 62.3222 107.812C63.4757 107.051 64.1644 105.772 64.1644 104.39ZM57.3188 102.405H60.0637C61.1581 102.405 62.0483 103.295 62.0483 104.39C62.0483 105.033 61.7341 105.639 61.2077 106.011C60.8736 106.249 60.478 106.374 60.0637 106.374H57.3188V102.405Z" fill="#FFB500"/>
<path d="M69.2529 110.784H78.1929C78.1989 110.784 78.2038 110.78 78.2038 110.774V108.679C78.2038 108.673 78.1989 108.668 78.1929 108.668H71.3586V100.3C71.3586 100.294 71.3537 100.289 71.3476 100.289H69.2529C69.2468 100.289 69.2419 100.294 69.2419 100.3V110.773C69.2419 110.78 69.2468 110.784 69.2529 110.784Z" fill="#FFB500"/>
<path d="M87.6311 110.785C90.5246 110.785 92.8786 108.43 92.8786 105.536C92.8786 102.643 90.5245 100.289 87.6311 100.289C84.7373 100.289 82.3828 102.643 82.3828 105.536C82.3828 108.43 84.7372 110.785 87.6311 110.785ZM84.4998 105.536C84.4998 103.81 85.9045 102.405 87.6311 102.405C89.3577 102.405 90.7625 103.81 90.7625 105.536C90.7625 107.263 89.3577 108.668 87.6311 108.668C85.9045 108.668 84.4998 107.263 84.4998 105.536Z" fill="#FFB500"/>
<path d="M98.1109 110.785H100.205C100.211 110.785 100.216 110.78 100.216 110.774V108.49H102.961C103.028 108.49 103.095 108.489 103.161 108.485L104.58 110.78C104.582 110.783 104.586 110.785 104.589 110.785H107.051C107.055 110.785 107.058 110.783 107.06 110.779C107.062 110.776 107.062 110.772 107.06 110.768L105.228 107.806C106.376 107.044 107.062 105.768 107.062 104.39C107.062 102.129 105.222 100.289 102.961 100.289H98.1108C98.1047 100.289 98.0999 100.294 98.0999 100.3V110.774C98.1 110.78 98.1049 110.785 98.1109 110.785ZM104.105 106.011C103.771 106.249 103.375 106.374 102.961 106.374H100.216V102.405H102.961C104.055 102.405 104.946 103.295 104.946 104.39C104.946 105.033 104.631 105.639 104.105 106.011Z" fill="#FFB500"/>
<path d="M112.3 110.785H114.499C114.504 110.785 114.508 110.782 114.51 110.777L114.968 109.351H118.571L119.03 110.777C119.032 110.782 119.036 110.785 119.041 110.785H121.24C121.243 110.785 121.247 110.783 121.249 110.78C121.251 110.778 121.251 110.774 121.25 110.771L117.88 100.297C117.879 100.292 117.874 100.289 117.87 100.289H115.67C115.666 100.289 115.661 100.292 115.66 100.297L112.29 110.771C112.289 110.774 112.289 110.778 112.291 110.78C112.293 110.783 112.296 110.785 112.3 110.785ZM115.65 107.234L116.77 103.752L117.89 107.234H115.65Z" fill="#FFB500"/>
<path d="M126.937 108.669C126.354 108.669 125.879 109.143 125.879 109.727C125.879 110.014 125.995 110.275 126.182 110.466L125.884 110.764C125.88 110.768 125.88 110.775 125.884 110.779L126.625 111.52C126.627 111.522 126.63 111.523 126.632 111.523C126.635 111.523 126.638 111.522 126.64 111.52L127.685 110.475C127.686 110.474 127.686 110.474 127.686 110.473C127.877 110.282 127.995 110.018 127.995 109.727C127.995 109.143 127.521 108.669 126.937 108.669Z" fill="#FFB500"/>
<path d="M146.31 110.782C147.654 110.782 148.998 110.27 150.021 109.247C150.025 109.243 150.025 109.236 150.021 109.232L148.54 107.751C148.535 107.747 148.528 107.747 148.524 107.751C147.303 108.972 145.317 108.972 144.096 107.751C143.504 107.159 143.179 106.373 143.179 105.537C143.179 104.7 143.504 103.914 144.096 103.322C145.317 102.102 147.303 102.102 148.524 103.322C148.528 103.327 148.535 103.327 148.54 103.322L150.021 101.841C150.025 101.837 150.025 101.83 150.021 101.826C147.975 99.7795 144.645 99.7795 142.599 101.826C141.608 102.817 141.062 104.135 141.062 105.536C141.062 106.938 141.608 108.256 142.599 109.247C143.622 110.27 144.966 110.782 146.31 110.782Z" fill="#FFB500"/>
<path d="M155.113 110.784H164.053C164.059 110.784 164.063 110.78 164.063 110.774V108.679C164.063 108.673 164.059 108.668 164.053 108.668H157.218V100.3C157.218 100.294 157.213 100.289 157.207 100.289H155.113C155.106 100.289 155.102 100.294 155.102 100.3V110.773C155.102 110.78 155.106 110.784 155.113 110.784Z" fill="#FFB500"/>
<path d="M169.302 110.785H171.501C171.506 110.785 171.51 110.782 171.511 110.777L171.97 109.351H175.573L176.032 110.777C176.033 110.782 176.038 110.785 176.042 110.785H178.242C178.245 110.785 178.248 110.783 178.25 110.78C178.252 110.778 178.253 110.774 178.252 110.771L174.882 100.297C174.88 100.292 174.876 100.289 174.871 100.289H172.672C172.667 100.289 172.663 100.292 172.662 100.297L169.291 110.771C169.29 110.774 169.291 110.778 169.293 110.78C169.295 110.783 169.298 110.785 169.302 110.785ZM172.651 107.234L173.772 103.752L174.892 107.234H172.651Z" fill="#FFB500"/>
<path d="M188.244 108.669H185.585C185.013 108.669 184.547 108.203 184.547 107.632C184.547 107.626 184.543 107.621 184.537 107.621H182.443C182.437 107.621 182.432 107.626 182.432 107.632C182.432 109.37 183.846 110.785 185.585 110.785H188.244C189.983 110.785 191.397 109.37 191.397 107.632C191.397 105.893 189.983 104.479 188.244 104.479H185.585C185.013 104.479 184.547 104.013 184.547 103.442C184.547 102.87 185.013 102.405 185.585 102.405H188.244C188.816 102.405 189.281 102.87 189.281 103.442C189.281 103.448 189.286 103.453 189.292 103.453H191.386C191.392 103.453 191.397 103.448 191.397 103.442C191.397 101.703 189.983 100.289 188.244 100.289H185.585C183.846 100.289 182.432 101.703 182.432 103.442C182.432 105.18 183.846 106.595 185.585 106.595H188.244C188.816 106.595 189.281 107.06 189.281 107.632C189.281 108.203 188.816 108.669 188.244 108.669Z" fill="#FFB500"/>
<path d="M196.632 110.784H198.726C198.732 110.784 198.737 110.78 198.737 110.774V100.3C198.737 100.294 198.732 100.289 198.726 100.289H196.632C196.626 100.289 196.621 100.294 196.621 100.3V110.774C196.621 110.78 196.626 110.784 196.632 110.784Z" fill="#FFB500"/>
<path d="M203.976 110.784H206.071C206.077 110.784 206.082 110.78 206.082 110.774V106.595H210.822C210.828 106.595 210.833 106.59 210.833 106.584V104.489C210.833 104.483 210.828 104.478 210.822 104.478H206.082V102.405H212.916C212.922 102.405 212.927 102.4 212.927 102.394V100.3C212.927 100.294 212.922 100.289 212.916 100.289H203.976C203.97 100.289 203.965 100.294 203.965 100.3V110.774C203.965 110.78 203.97 110.784 203.976 110.784Z" fill="#FFB500"/>
<path d="M218.165 110.784H220.259C220.265 110.784 220.27 110.78 220.27 110.774V100.3C220.27 100.294 220.266 100.289 220.259 100.289H218.165C218.159 100.289 218.155 100.294 218.155 100.3V110.774C218.155 110.78 218.159 110.784 218.165 110.784Z" fill="#FFB500"/>
<path d="M230.747 110.782C232.091 110.782 233.434 110.27 234.457 109.247C234.462 109.243 234.462 109.236 234.457 109.232L232.976 107.751C232.972 107.747 232.965 107.747 232.961 107.751C231.74 108.972 229.753 108.972 228.533 107.751C227.941 107.159 227.615 106.373 227.615 105.537C227.615 104.7 227.941 103.914 228.533 103.322C229.753 102.102 231.74 102.102 232.961 103.322C232.965 103.327 232.972 103.327 232.976 103.322L234.457 101.841C234.462 101.837 234.462 101.83 234.457 101.826C232.411 99.7795 229.082 99.7795 227.036 101.826C226.045 102.817 225.499 104.135 225.499 105.536C225.499 106.938 226.045 108.256 227.036 109.247C228.059 110.27 229.403 110.782 230.747 110.782Z" fill="#FFB500"/>
<path d="M238.95 110.785H241.149C241.154 110.785 241.158 110.782 241.16 110.777L241.619 109.351H245.222L245.68 110.777C245.682 110.782 245.686 110.785 245.691 110.785H247.89C247.893 110.785 247.897 110.783 247.899 110.78C247.901 110.778 247.901 110.774 247.9 110.771L244.53 100.297C244.529 100.292 244.525 100.289 244.52 100.289H242.321C242.316 100.289 242.312 100.292 242.31 100.297L238.94 110.771C238.939 110.774 238.939 110.778 238.941 110.78C238.943 110.783 238.947 110.785 238.95 110.785ZM242.3 107.234L243.42 103.752L244.54 107.234H242.3Z" fill="#FFB500"/>
<path d="M270.541 100.294C270.539 100.291 270.536 100.289 270.532 100.289H268.226C268.222 100.289 268.218 100.292 268.216 100.295L266.062 104.957L263.908 100.295C263.906 100.292 263.902 100.289 263.898 100.289H261.592C261.588 100.289 261.585 100.291 261.583 100.294C261.581 100.297 261.58 100.301 261.582 100.305L264.898 107.484L265.004 107.713V110.774C265.004 110.78 265.009 110.785 265.015 110.785H267.109C267.115 110.785 267.12 110.78 267.12 110.774V107.713L267.226 107.484C267.226 107.484 267.226 107.484 267.226 107.484L270.542 100.305C270.543 100.301 270.543 100.297 270.541 100.294Z" fill="#FFB500"/>
<path d="M284.234 110.784H287.937C290.831 110.784 293.185 108.43 293.185 105.537C293.185 102.643 290.831 100.289 287.937 100.289H284.234C284.228 100.289 284.223 100.294 284.223 100.3V110.774C284.223 110.78 284.228 110.784 284.234 110.784ZM286.339 102.405H287.937C289.664 102.405 291.068 103.81 291.068 105.537C291.068 107.263 289.664 108.668 287.937 108.668H286.339V102.405Z" fill="#FFB500"/>
<path d="M298.423 110.784H307.363C307.369 110.784 307.374 110.78 307.374 110.774V108.679C307.374 108.673 307.369 108.668 307.363 108.668H300.529V106.595H305.269C305.275 106.595 305.28 106.59 305.28 106.584V104.489C305.28 104.483 305.275 104.478 305.269 104.478H300.529V102.405H307.363C307.369 102.405 307.374 102.4 307.374 102.394V100.3C307.374 100.294 307.369 100.289 307.363 100.289H298.423C298.417 100.289 298.412 100.294 298.412 100.3V110.773C298.412 110.78 298.417 110.784 298.423 110.784Z" fill="#FFB500"/>
<path d="M317.89 108.669H315.23C314.658 108.669 314.193 108.203 314.193 107.632C314.193 107.626 314.188 107.621 314.182 107.621H312.088C312.082 107.621 312.077 107.626 312.077 107.632C312.077 109.37 313.492 110.785 315.23 110.785H317.89C319.629 110.785 321.043 109.37 321.043 107.632C321.043 105.893 319.628 104.479 317.89 104.479H315.23C314.658 104.479 314.193 104.013 314.193 103.442C314.193 102.87 314.658 102.405 315.23 102.405H317.89C318.462 102.405 318.927 102.87 318.927 103.442C318.927 103.448 318.932 103.453 318.938 103.453H321.032C321.038 103.453 321.043 103.448 321.043 103.442C321.043 101.703 319.628 100.289 317.89 100.289H315.23C313.491 100.289 312.077 101.703 312.077 103.442C312.077 105.18 313.492 106.595 315.23 106.595H317.89C318.462 106.595 318.927 107.06 318.927 107.632C318.927 108.203 318.462 108.669 317.89 108.669Z" fill="#FFB500"/>
<path d="M331.29 110.782C332.634 110.782 333.978 110.27 335.001 109.247C335.005 109.243 335.005 109.236 335.001 109.232L333.52 107.751C333.515 107.747 333.508 107.747 333.504 107.751C332.283 108.972 330.297 108.972 329.076 107.751C328.484 107.159 328.159 106.373 328.159 105.537C328.159 104.7 328.484 103.914 329.076 103.322C330.297 102.102 332.283 102.102 333.504 103.322C333.508 103.327 333.515 103.327 333.52 103.322L335.001 101.841C335.005 101.837 335.005 101.83 335.001 101.826C332.955 99.7795 329.625 99.7795 327.579 101.826C326.588 102.817 326.042 104.135 326.042 105.536C326.042 106.938 326.588 108.256 327.579 109.247C328.602 110.27 329.946 110.782 331.29 110.782Z" fill="#FFB500"/>
<path d="M349.032 100.289H346.938C346.932 100.289 346.927 100.294 346.927 100.3V106.304C346.927 107.608 345.866 108.669 344.562 108.669C343.258 108.669 342.197 107.608 342.197 106.304V100.3C342.197 100.294 342.192 100.289 342.186 100.289H340.092C340.086 100.289 340.081 100.294 340.081 100.3V106.304C340.081 108.774 342.091 110.785 344.562 110.785C347.033 110.785 349.043 108.774 349.043 106.304V100.3C349.043 100.294 349.038 100.289 349.032 100.289Z" fill="#FFB500"/>
<path d="M363.232 107.632C363.232 106.828 362.93 106.094 362.433 105.537C362.93 104.979 363.232 104.245 363.232 103.442C363.232 101.703 361.818 100.289 360.079 100.289H354.281C354.275 100.289 354.271 100.294 354.271 100.3V110.774C354.271 110.78 354.275 110.784 354.281 110.784H360.079C361.818 110.784 363.232 109.37 363.232 107.632ZM360.079 106.595C360.651 106.595 361.117 107.06 361.117 107.632C361.117 108.203 360.651 108.669 360.079 108.669H356.386V106.595L360.079 106.595ZM356.386 104.479V102.405H360.079C360.651 102.405 361.117 102.87 361.117 103.442C361.117 104.013 360.651 104.479 360.079 104.479H356.386Z" fill="#FFB500"/>
<path d="M368.471 110.785H370.565C370.571 110.785 370.576 110.78 370.576 110.774V108.49H373.321C373.388 108.49 373.455 108.489 373.521 108.485L374.94 110.78C374.942 110.783 374.946 110.785 374.949 110.785H377.411C377.415 110.785 377.418 110.783 377.42 110.779C377.422 110.776 377.422 110.772 377.42 110.768L375.588 107.806C376.736 107.044 377.422 105.768 377.422 104.39C377.422 102.129 375.582 100.289 373.321 100.289H368.471C368.465 100.289 368.46 100.294 368.46 100.3V110.774C368.46 110.78 368.465 110.785 368.471 110.785ZM374.465 106.011C374.131 106.249 373.735 106.374 373.321 106.374H370.576V102.405H373.321C374.415 102.405 375.306 103.295 375.306 104.39C375.306 105.033 374.992 105.639 374.465 106.011Z" fill="#FFB500"/>
<path d="M382.66 110.784H391.6C391.606 110.784 391.611 110.78 391.611 110.774V108.679C391.611 108.673 391.606 108.668 391.6 108.668H384.766V106.595H389.506C389.512 106.595 389.517 106.59 389.517 106.584V104.489C389.517 104.483 389.512 104.478 389.506 104.478H384.766V102.405H391.6C391.606 102.405 391.611 102.4 391.611 102.394V100.3C391.611 100.294 391.606 100.289 391.6 100.289H382.66C382.654 100.289 382.649 100.294 382.649 100.3V110.773C382.649 110.78 382.654 110.784 382.66 110.784Z" fill="#FFB500"/>
<path d="M0.0856323 16.5898H26.8239V82.1744C26.8239 82.2217 26.8623 82.26 26.9096 82.26H43.3271C43.3744 82.26 43.4128 82.2217 43.4128 82.1744V16.5898H70.1517C70.199 16.5898 70.2374 16.5514 70.2374 16.5042V0.0865936C70.2374 0.0393236 70.199 0.000976562 70.1517 0.000976562H0.0856323C0.0383623 0.000976562 0 0.0393236 0 0.0865936V16.5042C0 16.5514 0.0376823 16.5898 0.0856323 16.5898Z" fill="#FFB500"/>
<path d="M118.053 47.1434V0.0856323C118.053 0.0383623 118.015 0 117.967 0H80.7221C80.6748 0 80.6365 0.0383623 80.6365 0.0856323V47.1434C80.6365 57.4573 89.0275 65.8483 99.3414 65.8483C109.659 65.8483 118.053 57.4573 118.053 47.1434ZM192.902 58.4869C192.87 58.4547 192.813 58.4547 192.781 58.4869C183.212 68.0562 167.644 68.0562 158.075 58.4869C148.506 48.9184 148.506 33.3503 158.075 23.7817C167.643 14.2124 183.212 14.2124 192.781 23.7817C192.813 23.8146 192.87 23.8153 192.902 23.781L204.507 12.1696C204.54 12.1361 204.54 12.082 204.507 12.0484C196.738 4.2801 186.41 0.00135803 175.428 0.00135803C164.442 0.00135803 154.112 4.2801 146.343 12.0484C138.576 19.816 134.298 30.1436 134.296 41.1275V47.1421C134.296 66.4121 118.619 82.0891 99.3489 82.0891C99.3016 82.0891 99.2633 82.1275 99.2633 82.1748C99.2633 82.222 99.3016 82.2604 99.3489 82.2604H175.401C175.41 82.2604 175.419 82.2611 175.428 82.2611C186.415 82.2611 196.742 77.9824 204.507 70.2127C204.541 70.1791 204.541 70.125 204.507 70.0915L192.902 58.4869Z" fill="#FFB500"/>
<path d="M213.832 82.26H230.243C230.29 82.26 230.329 82.2217 230.329 82.1744V0.0865936C230.329 0.0393236 230.29 0.000976562 230.243 0.000976562H213.832C213.784 0.000976562 213.746 0.0393236 213.746 0.0865936V82.1744C213.746 82.2217 213.784 82.26 213.832 82.26Z" fill="#FFB500"/>
<path d="M240.821 82.2621H257.228C257.275 82.2621 257.314 82.2237 257.314 82.1765V26.9215L291.517 82.2217C291.532 82.247 291.56 82.2621 291.589 82.2621H310.887C310.934 82.2621 310.973 82.2237 310.973 82.1765V0.0886688C310.973 0.0413988 310.934 0.00305176 310.887 0.00305176H294.473C294.426 0.00305176 294.388 0.0413988 294.388 0.0886688V55.3436L260.192 0.0434723C260.177 0.0181223 260.149 0.00305176 260.12 0.00305176H240.821C240.774 0.00305176 240.736 0.0413988 240.736 0.0886688V82.1765C240.736 82.2237 240.774 82.2621 240.821 82.2621Z" fill="#FFB500"/>
<path d="M321.458 82.26H391.525C391.573 82.26 391.611 82.2217 391.611 82.1744V65.7569C391.611 65.7096 391.573 65.6712 391.525 65.6712H337.962V49.4249H375.114C375.161 49.4249 375.2 49.3865 375.2 49.3393V32.9217C375.2 32.8745 375.161 32.8361 375.114 32.8361H337.962V16.5898H391.525C391.573 16.5898 391.611 16.5514 391.611 16.5042V0.0866089C391.611 0.0393389 391.573 0.000976562 391.525 0.000976562H321.458C321.411 0.000976562 321.372 0.0393389 321.372 0.0866089V82.1744C321.372 82.2217 321.411 82.26 321.458 82.26Z" fill="#FFB500"/>
</g>
<defs>
<clipPath id="clip0_147_4">
<rect width="391.611" height="111.523" fill="white"/>
</clipPath>
</defs>
</svg>
