<svg width="100" height="100" viewBox="0 0 100 100" fill="none" xmlns="http://www.w3.org/2000/svg">
<circle cx="50" cy="50" r="50" fill="#FFB500"/>
<path d="M38.6667 40.9215L38.6883 40.8979M60.3333 40.9215L60.355 40.8979M38.6667 49.5215L38.6883 49.4979M60.3333 49.5215L60.355 49.4979M38.6667 58.1215L38.6883 58.0979M60.3333 58.1215L60.355 58.0979M38.6667 28H31.3C30.9552 28 30.6246 28.1359 30.3808 28.3778C30.137 28.6198 30 28.9479 30 29.29V69.71C30 70.0521 30.137 70.3802 30.3808 70.6222C30.6246 70.8641 30.9552 71 31.3 71H38.6667M38.6667 28V32.3M38.6667 28H60.3333M38.6667 71H60.3333M38.6667 71V66.7M60.3333 28H67.7C68.0448 28 68.3754 28.1359 68.6192 28.3778C68.863 28.6198 69 28.9479 69 29.29V69.71C69 70.0521 68.863 70.3802 68.6192 70.6222C68.3754 70.8641 68.0448 71 67.7 71H60.3333M60.3333 28V32.3M60.3333 71V66.7" stroke="#2D2B2B" stroke-width="5" stroke-linecap="round" stroke-linejoin="round"/>
</svg>
